REM DIRINDEX 1\2,1\3\5,1\3\6,1\4\7,1\4\8
REM DIRNAME cjc139,folder01,folder02,folder03,folder04,folder05,folder06,folder07
TITLE ""
FILE "EG_E1.5_14.mp3" MP3
  TRACK 01 AUDIO
    TITLE "0:"
    INDEX 01 00:00:00
  TRACK 02 AUDIO
    TITLE "2:cjc139_0510"
    INDEX 01 00:00:17
  TRACK 03 AUDIO
    TITLE "0:"
    INDEX 01 00:02:47
  TRACK 04 AUDIO
    TITLE "2:cjc139_0511"
    INDEX 01 00:03:70
  TRACK 05 AUDIO
    TITLE "0:"
    INDEX 01 00:06:61
  TRACK 06 AUDIO
    TITLE "2:cjc139_0512"
    INDEX 01 00:08:11
  TRACK 07 AUDIO
    TITLE "0:"
    INDEX 01 00:10:70
  TRACK 08 AUDIO
    TITLE "2:cjc139_0513"
    INDEX 01 00:12:16
  TRACK 09 AUDIO
    TITLE "0:"
    INDEX 01 00:14:17
  TRACK 10 AUDIO
    TITLE "2:cjc139_0514"
    INDEX 01 00:15:36
  TRACK 11 AUDIO
    TITLE "0:"
    INDEX 01 00:18:11
  TRACK 12 AUDIO
    TITLE "2:cjc139_0515"
    INDEX 01 00:19:32
  TRACK 13 AUDIO
    TITLE "0:"
    INDEX 01 00:21:64
  TRACK 14 AUDIO
    TITLE "2:cjc139_0516"
    INDEX 01 00:23:12
  TRACK 15 AUDIO
    TITLE "0:"
    INDEX 01 00:25:27
  TRACK 16 AUDIO
    TITLE "2:cjc139_0517"
    INDEX 01 00:26:50
  TRACK 17 AUDIO
    TITLE "0:"
    INDEX 01 00:29:58
  TRACK 18 AUDIO
    TITLE "2:cjc139_0518"
    INDEX 01 00:31:04
  TRACK 19 AUDIO
    TITLE "0:"
    INDEX 01 00:33:60
  TRACK 20 AUDIO
    TITLE "2:cjc139_0519"
    INDEX 01 00:35:06
  TRACK 21 AUDIO
    TITLE "0:"
    INDEX 01 00:37:57
  TRACK 22 AUDIO
    TITLE "2:cjc139_0520"
    INDEX 01 00:39:03
  TRACK 23 AUDIO
    TITLE "0:"
    INDEX 01 00:41:44
  TRACK 24 AUDIO
    TITLE "2:cjc139_0521"
    INDEX 01 00:42:65
  TRACK 25 AUDIO
    TITLE "0:"
    INDEX 01 00:45:41
  TRACK 26 AUDIO
    TITLE "2:cjc139_0522"
    INDEX 01 00:46:62
  TRACK 27 AUDIO
    TITLE "0:"
    INDEX 01 00:49:20
  TRACK 28 AUDIO
    TITLE "2:cjc139_0523"
    INDEX 01 00:50:44
  TRACK 29 AUDIO
    TITLE "0:"
    INDEX 01 00:53:29
  TRACK 30 AUDIO
    TITLE "2:cjc139_0524"
    INDEX 01 00:54:52
  TRACK 31 AUDIO
    TITLE "0:"
    INDEX 01 00:57:13
  TRACK 32 AUDIO
    TITLE "2:cjc139_0525"
    INDEX 01 00:58:34
  TRACK 33 AUDIO
    TITLE "0:"
    INDEX 01 01:01:23
  TRACK 34 AUDIO
    TITLE "2:cjc139_0526"
    INDEX 01 01:02:46
  TRACK 35 AUDIO
    TITLE "0:"
    INDEX 01 01:05:11
  TRACK 36 AUDIO
    TITLE "2:cjc139_0527"
    INDEX 01 01:06:32
  TRACK 37 AUDIO
    TITLE "0:"
    INDEX 01 01:08:56
  TRACK 38 AUDIO
    TITLE "2:cjc139_0528"
    INDEX 01 01:10:04
  TRACK 39 AUDIO
    TITLE "0:"
    INDEX 01 01:12:50
  TRACK 40 AUDIO
    TITLE "2:cjc139_0529"
    INDEX 01 01:13:69
  TRACK 41 AUDIO
    TITLE "0:"
    INDEX 01 01:16:65
  TRACK 42 AUDIO
    TITLE "2:cjc139_0530"
    INDEX 01 01:18:13
  TRACK 43 AUDIO
    TITLE "0:"
    INDEX 01 01:20:71
  TRACK 44 AUDIO
    TITLE "2:cjc139_0531"
    INDEX 01 01:22:17
  TRACK 45 AUDIO
    TITLE "0:"
    INDEX 01 01:25:15
  TRACK 46 AUDIO
    TITLE "2:cjc139_0532"
    INDEX 01 01:26:38
  TRACK 47 AUDIO
    TITLE "0:"
    INDEX 01 01:29:58
  TRACK 48 AUDIO
    TITLE "2:cjc139_0533"
    INDEX 01 01:31:04
  TRACK 49 AUDIO
    TITLE "0:"
    INDEX 01 01:34:46
  TRACK 50 AUDIO
    TITLE "2:cjc139_0534"
    INDEX 01 01:35:67
  TRACK 51 AUDIO
    TITLE "0:"
    INDEX 01 01:39:64
  TRACK 52 AUDIO
    TITLE "2:cjc139_0535"
    INDEX 01 01:41:10
  TRACK 53 AUDIO
    TITLE "0:"
    INDEX 01 01:44:44
  TRACK 54 AUDIO
    TITLE "2:cjc139_0536"
    INDEX 01 01:45:65
  TRACK 55 AUDIO
    TITLE "0:"
    INDEX 01 01:48:09
  TRACK 56 AUDIO
    TITLE "2:cjc139_0537"
    INDEX 01 01:49:32
  TRACK 57 AUDIO
    TITLE "0:"
    INDEX 01 01:51:64
  TRACK 58 AUDIO
    TITLE "2:cjc139_0538"
    INDEX 01 01:53:10
  TRACK 59 AUDIO
    TITLE "0:"
    INDEX 01 01:55:56
  TRACK 60 AUDIO
    TITLE "2:cjc139_0539"
    INDEX 01 01:57:02
  TRACK 61 AUDIO
    TITLE "0:"
    INDEX 01 01:59:61
  TRACK 62 AUDIO
    TITLE "2:cjc139_0540"
    INDEX 01 02:01:09
  TRACK 63 AUDIO
    TITLE "0:"
    INDEX 01 02:03:08
  TRACK 64 AUDIO
    TITLE "2:cjc139_0541"
    INDEX 01 02:04:29
  TRACK 65 AUDIO
    TITLE "0:"
    INDEX 01 02:06:65
  TRACK 66 AUDIO
    TITLE "2:cjc139_0542"
    INDEX 01 02:08:13
  TRACK 67 AUDIO
    TITLE "0:"
    INDEX 01 02:11:74
  TRACK 68 AUDIO
    TITLE "2:cjc139_0543"
    INDEX 01 02:13:20
  TRACK 69 AUDIO
    TITLE "0:"
    INDEX 01 02:16:15
